<?xml version="1.0" encoding="UTF-8"?>
<!DOCTYPE svg PUBLIC "-//W3C//DTD SVG 1.1//EN" "http://www.w3.org/Graphics/SVG/1.1/DTD/svg11.dtd">
<!-- Creator: CorelDRAW 2020 (64-Bit) -->
<svg xmlns="http://www.w3.org/2000/svg" xml:space="preserve" width="180mm" height="180mm" version="1.1" style="shape-rendering:geometricPrecision; text-rendering:geometricPrecision; image-rendering:optimizeQuality; fill-rule:evenodd; clip-rule:evenodd"
viewBox="0 0 18000 18000"
 xmlns:xlink="http://www.w3.org/1999/xlink"
 xmlns:xodm="http://www.corel.com/coreldraw/odm/2003">
 <defs>
  <style type="text/css">
   <![CDATA[
    .str0 {stroke:#1F1F26;stroke-width:17.64;stroke-miterlimit:22.9256}
    .str1 {stroke:#54331F;stroke-width:17.64;stroke-miterlimit:22.9256}
    .fil0 {fill:#1F1F26}
    .fil1 {fill:#54331F}
   ]]>
  </style>
 </defs>
 <g id="Capa_x0020_1">
  <metadata id="CorelCorpID_0Corel-Layer"/>
  <g id="_1719258637280">
   <path class="fil0 str0" d="M7365.98 10084.56l7143.56 -7143.56c-241.8,235.12 -571.88,379.91 -935.78,379.91 -741.41,0 -1342.46,-601.03 -1342.46,-1342.45 0,-364.04 144.91,-694.24 380.18,-936.06l-4526.25 4526.25c-522.09,522.09 -1376.41,522.09 -1898.51,-0.01 -522.1,-522.09 -522.1,-1376.41 0,-1898.51l3663 -3663 -9786.67 0c-34.97,0 -63.58,28.61 -63.58,63.58l0 17872.84c0,34.97 28.61,63.58 63.58,63.58l17872.84 0c34.97,0 63.58,-28.61 63.58,-63.58l0 -7114.64 -835.22 835.22c-522.09,522.09 -1376.41,522.09 -1898.51,-0.01 -522.1,-522.09 -522.1,-1376.41 0,-1898.51l1036.82 -1036.82c-234.67,200.91 -539.47,322.27 -872.62,322.27 -741.41,0 -1342.46,-601.03 -1342.46,-1342.45 0,-327.54 117.3,-627.68 312.19,-860.7l-5135.18 5135.17c-522.09,522.09 -1376.41,522.09 -1898.51,-0.01 -522.1,-522.09 -522.1,-1376.41 0,-1898.51zm4359.5 2108.25c0,-138.07 111.93,-250 250,-250 138.07,0 250,111.93 250,250 0,138.07 -111.93,250 -250,250 -138.07,0 -250,-111.93 -250,-250zm-7187.13 -3622.58l127.27 -127.27 151.52 151.52 151.52 -151.52 145.45 145.46 -151.51 151.51 151.51 151.52 -127.27 127.27 -151.52 -151.51 -151.51 151.51 -145.46 -145.45 151.52 -151.52 -151.52 -151.52zm-1652.69 3047.42c741.4,0 1342.45,601.03 1342.45,1342.45 0,741.42 -601.05,1342.45 -1342.45,1342.45 -741.41,0 -1342.46,-601.03 -1342.46,-1342.45 0,-741.42 601.05,-1342.45 1342.46,-1342.45zm3236.22 3794.94l151.52 -151.52 145.45 145.46 -151.51 151.51 151.51 151.52 -127.27 127.27 -151.52 -151.51 -151.51 151.51 -145.46 -145.45 151.52 -151.52 -151.52 -151.52 127.27 -127.27 151.52 151.52zm7447.04 -341.75l127.27 -127.27 151.52 151.52 151.52 -151.52 145.45 145.46 -151.51 151.51 151.51 151.52 -127.27 127.27 -151.52 -151.51 -151.51 151.51 -145.46 -145.45 151.52 -151.52 -151.52 -151.52zm-10950.57 -10842c0,138.07 -111.93,250 -250,250 -138.07,0 -250,-111.93 -250,-250 0,-138.07 111.93,-250 250,-250 138.07,0 250,111.93 250,250zm-274.09 -2277.61l-127.27 127.27 -151.52 -151.52 -151.52 151.52 -145.45 -145.45 151.52 -151.52 -151.51 -151.52 127.26 -127.26 151.52 151.51 151.52 -151.52 145.45 145.45 -151.52 151.52 151.52 151.52z"/>
   <path class="fil0 str0" d="M12231.3 1978.46c0,741.42 601.05,1342.45 1342.46,1342.45 363.9,0 693.98,-144.79 935.78,-379.91l26.76 -26.76c235.12,-241.8 379.91,-571.88 379.91,-935.78 0,-741.42 -601.05,-1342.45 -1342.45,-1342.45 -364.04,0 -694.25,144.91 -936.07,380.19l-26.21 26.2c-235.27,241.82 -380.18,572.02 -380.18,936.06z"/>
   <path class="fil0 str0" d="M15429.94 6366.16c-327.54,0 -627.69,117.3 -860.72,312.19l-169.55 169.56c-194.89,233.02 -312.19,533.16 -312.19,860.7 0,741.42 601.05,1342.45 1342.46,1342.45 333.15,0 637.95,-121.36 872.62,-322.27l147.56 -147.56c200.91,-234.67 322.27,-539.47 322.27,-872.62 0,-741.42 -601.05,-1342.45 -1342.45,-1342.45z"/>
   <path class="fil1 str1" d="M8085.23 5568.65l4526.25 -4526.25c8.62,-8.85 17.35,-17.59 26.21,-26.2l1009.06 -1009.07 -3797.03 0 -3663 3663c-522.1,522.1 -522.1,1376.42 0,1898.51 522.1,522.1 1376.42,522.1 1898.51,0.01z"/>
   <path class="fil1 str1" d="M13573.76 636.01c741.4,0 1342.45,601.03 1342.45,1342.45 0,363.9 -144.79,693.98 -379.91,935.78l2907.11 -2907.11 -3796.66 0 -1009.06 1009.07c241.82,-235.28 572.03,-380.19 936.07,-380.19z"/>
   <path class="fil1 str1" d="M17443.41 7.13l-2907.11 2907.11c-8.79,9.04 -17.71,17.96 -26.76,26.76l-7143.56 7143.56c-522.1,522.1 -522.1,1376.42 0,1898.51 522.1,522.1 1376.42,522.1 1898.51,0.01l5135.15 -5135.14c51.37,-61.43 108.13,-118.19 169.6,-169.61l3430.23 -3430.22 0 -3177.4c0,-34.97 -28.61,-63.58 -63.58,-63.58l-492.48 0z"/>
   <path class="fil1 str1" d="M17999.47 3248.11l-3430.27 3430.26c233.03,-194.9 533.19,-312.21 860.74,-312.21 741.4,0 1342.45,601.03 1342.45,1342.45 0,333.15 -121.36,637.95 -322.27,872.62l1549.35 -1549.35 0 -3783.77z"/>
   <path class="fil1 str1" d="M17999.47 7031.88l-1549.35 1549.35c-45.3,52.91 -94.65,102.26 -147.56,147.56l-1036.82 1036.82c-522.1,522.1 -522.1,1376.42 0,1898.51 522.1,522.1 1376.42,522.1 1898.51,0.01l835.22 -835.22 0 -3797.03z"/>
   <path class="fil1 str1" d="M4228.11 12960.1c0,-741.42 -601.05,-1342.45 -1342.45,-1342.45 -741.41,0 -1342.46,601.03 -1342.46,1342.45 0,741.42 601.05,1342.45 1342.46,1342.45 741.4,0 1342.45,-601.03 1342.45,-1342.45z"/>
   <path class="fil1 str1" d="M11975.48 11942.81c-138.07,0 -250,111.93 -250,250 0,138.07 111.93,250 250,250 138.07,0 250,-111.93 250,-250 0,-138.07 -111.93,-250 -250,-250z"/>
   <polygon class="fil1 str1" points="13999.23,14943.57 13847.71,15095.09 13696.19,14943.57 13568.92,15070.84 13720.44,15222.36 13568.92,15373.88 13714.38,15519.33 13865.89,15367.82 14017.41,15519.33 14144.68,15392.06 13993.17,15240.54 14144.68,15089.03 "/>
   <polygon class="fil1 str1" points="6267.34,15558.04 6418.85,15406.53 6273.4,15261.07 6121.88,15412.59 5970.36,15261.07 5843.09,15388.34 5994.61,15539.86 5843.09,15691.38 5988.55,15836.83 6140.06,15685.32 6291.58,15836.83 6418.85,15709.56 "/>
   <polygon class="fil1 str1" points="4835.32,8867.21 4986.84,9018.72 5114.11,8891.45 4962.6,8739.93 5114.11,8588.42 4968.66,8442.96 4817.14,8594.48 4665.62,8442.96 4538.35,8570.23 4689.87,8721.75 4538.35,8873.27 4683.81,9018.72 "/>
   <path class="fil1 str1" d="M2368.35 4478.84c138.07,0 250,-111.93 250,-250 0,-138.07 -111.93,-250 -250,-250 -138.07,0 -250,111.93 -250,250 0,138.07 111.93,250 250,250z"/>
   <polygon class="fil1 str1" points="1913.95,2078.5 2065.47,1926.98 2216.99,2078.5 2344.26,1951.23 2192.74,1799.71 2344.26,1648.19 2198.81,1502.74 2047.29,1654.26 1895.77,1502.75 1768.51,1630.01 1920.02,1781.53 1768.5,1933.05 "/>
  </g>
 </g>
</svg>
